<svg width="1410" height="708" viewBox="0 0 1410 708" fill="none" xmlns="http://www.w3.org/2000/svg">
<rect x="1" y="1" width="1408" height="706" rx="14" fill="#CAC3CA"/>
<rect x="94.38" y="549.5" width="24.5" height="83" fill="#C1BAC4" stroke="#BAB0BD" stroke-width="2"/>
<rect x="410.73" y="287" width="24.5" height="83" fill="#C1BAC4" stroke="#BAB0BD" stroke-width="2"/>
<rect x="157.66" y="536.27" width="24.5" height="83" fill="#C1BAC4" stroke="#BAB0BD" stroke-width="2"/>
<rect x="220.92" y="457.02" width="24.5" height="83" fill="#C1BAC4" stroke="#BAB0BD" stroke-width="2"/>
<rect x="537.27" y="292" width="24.5" height="83" fill="#C1BAC4" stroke="#BAB0BD" stroke-width="2"/>
<rect x="663.81" y="457.02" width="24.5" height="83" fill="#C1BAC4" stroke="#BAB0BD" stroke-width="2"/>
<rect x="474" y="234.61" width="24.5" height="158" fill="#C1BAC4" stroke="#BAB0BD" stroke-width="2"/>
<rect x="31.11" y="446" width="24.5" height="158" fill="#C1BAC4" stroke="#BAB0BD" stroke-width="2"/>
<rect x="600.55" y="339.5" width="24.5" height="158" fill="#C1BAC4" stroke="#BAB0BD" stroke-width="2"/>
<rect x="284.19" y="346.3" width="24.5" height="158" fill="#C1BAC4" stroke="#BAB0BD" stroke-width="2"/>
<rect x="727.08" y="259.5" width="24.5" height="238" fill="#C1BAC4" stroke="#BAB0BD" stroke-width="2"/>
<rect x="347.47" y="315.02" width="24.5" height="238" fill="#C1BAC4" stroke="#BAB0BD" stroke-width="2"/>
<rect x="853.63" y="549.5" width="24.5" height="83" fill="#C1BAC4" stroke="#BAB0BD" stroke-width="2"/>
<rect x="1169.97" y="287" width="24.5" height="83" fill="#C1BAC4" stroke="#BAB0BD" stroke-width="2"/>
<rect x="916.89" y="536.27" width="24.5" height="83" fill="#C1BAC4" stroke="#BAB0BD" stroke-width="2"/>
<rect x="980.16" y="457.02" width="24.5" height="83" fill="#C1BAC4" stroke="#BAB0BD" stroke-width="2"/>
<rect x="1296.52" y="292" width="24.5" height="83" fill="#C1BAC4" stroke="#BAB0BD" stroke-width="2"/>
<rect x="1233.25" y="234.61" width="24.5" height="158" fill="#C1BAC4" stroke="#BAB0BD" stroke-width="2"/>
<rect x="790.36" y="446" width="24.5" height="158" fill="#C1BAC4" stroke="#BAB0BD" stroke-width="2"/>
<rect x="1359.78" y="339.5" width="24.5" height="158" fill="#C1BAC4" stroke="#BAB0BD" stroke-width="2"/>
<rect x="1043.44" y="346.3" width="24.5" height="158" fill="#C1BAC4" stroke="#BAB0BD" stroke-width="2"/>
<rect x="1" y="1" width="1408" height="706" rx="14" stroke="#C3B9C1" stroke-width="2"/>
</svg>
